<?xml version="1.0" encoding="utf-8"?>
<!-- Generator: Adobe Illustrator 24.0.2, SVG Export Plug-In . SVG Version: 6.00 Build 0)  -->
<svg version="1.1" id="Layer_1" xmlns="http://www.w3.org/2000/svg" xmlns:xlink="http://www.w3.org/1999/xlink" x="0px" y="0px"
	 viewBox="0 0 24 24" style="enable-background:new 0 0 24 24;" xml:space="preserve">
<style type="text/css">
	.st0{fill:#FFFFFF;}
</style>
<path class="st0" d="M18.8,17.5l-3.3-3.2c0,0,0,0,0,0c0.7-1,1.2-2.2,1.2-3.5c0-3.2-2.6-5.9-5.9-5.9s-5.9,2.6-5.9,5.9
	s2.6,5.9,5.9,5.9c1.3,0,2.5-0.4,3.5-1.2c0,0,0,0,0,0l3.3,3.2C17.7,19,18,19,18.2,19s0.5-0.1,0.6-0.3C19.2,18.4,19.2,17.9,18.8,17.5
	L18.8,17.5z M11.6,14.9c-2.9,0.6-5.4-1.9-4.9-4.8C7.1,8.4,8.4,7.1,10,6.8c2.9-0.6,5.4,1.9,4.9,4.8C14.6,13.2,13.2,14.5,11.6,14.9z
	 M13.6,10.1c0.2,0.2,0.2,0.6,0,0.8c-0.1,0.1-0.3,0.2-0.4,0.2c-0.2,0-0.3-0.1-0.4-0.2l-0.3-0.3l-0.3,0.3c-0.1,0.1-0.3,0.2-0.4,0.2
	c-0.2,0-0.3-0.1-0.4-0.2c-0.2-0.2-0.2-0.6,0-0.8l0.3-0.3l-0.3-0.3c-0.2-0.2-0.2-0.6,0-0.8c0.2-0.2,0.6-0.2,0.8,0L12.5,9l0.3-0.3
	c0.2-0.2,0.6-0.2,0.8,0c0.2,0.2,0.2,0.6,0,0.8l-0.3,0.3L13.6,10.1z M8.8,10.9c-0.1,0.1-0.3,0.2-0.4,0.2c-0.2,0-0.3-0.1-0.4-0.2
	c-0.2-0.2-0.2-0.6,0-0.8l0.3-0.3L8,9.5C7.8,9.2,7.8,8.9,8,8.6c0.2-0.2,0.6-0.2,0.8,0L9.2,9l0.3-0.3c0.2-0.2,0.6-0.2,0.8,0
	c0.2,0.2,0.2,0.6,0,0.8L10,9.8l0.3,0.3c0.2,0.2,0.2,0.6,0,0.8c-0.1,0.1-0.3,0.2-0.4,0.2c-0.2,0-0.3-0.1-0.4-0.2l-0.3-0.3L8.8,10.9z
	 M12.8,13.1c-0.1,0.2-0.3,0.4-0.5,0.4c-0.1,0-0.2,0-0.2,0c-0.9-0.4-1.6-0.4-2.5,0c-0.3,0.1-0.6,0-0.8-0.3s0-0.6,0.3-0.8
	c1.1-0.5,2.3-0.5,3.4,0C12.8,12.5,13,12.8,12.8,13.1L12.8,13.1z"/>
</svg>
