<?xml version="1.0" encoding="utf-8"?>
<!-- Generator: Adobe Illustrator 24.0.2, SVG Export Plug-In . SVG Version: 6.00 Build 0)  -->
<svg version="1.1" id="Layer_1" xmlns="http://www.w3.org/2000/svg" xmlns:xlink="http://www.w3.org/1999/xlink" x="0px" y="0px"
	viewBox="0 0 512 512" style="enable-background:new 0 0 512 512;" xml:space="preserve">
<path fill="#ffffff" d="M192,117.3c0-17.7,14.3-32,32-32s32,14.3,32,32s-14.3,32-32,32S192,135,192,117.3z M512,106.7v128
	c0,58.9-47.8,106.7-106.7,106.7h-192c-58.9,0-106.7-47.8-106.7-106.7v-128C106.7,47.8,154.5,0,213.3,0h192
	C464.2,0,512,47.8,512,106.7z M149.3,234.7c0,16.4,6.2,31.4,16.4,42.9l111.8-111.8c20.9-20.9,57.4-20.9,78.3,0l22.2,22.2
	c4.9,4.9,13.2,4.9,18.1,0l73.2-73.2v-8.1c0-35.2-28.8-64-64-64h-192c-35.2,0-64,28.8-64,64V234.7z M469.3,234.7v-59.5l-43.1,43.1
	c-20.9,20.9-57.4,20.9-78.3,0l-22.2-22.2c-4.9-4.9-13-4.9-18.1,0L205.4,298.2c2.6,0.4,5.1,0.4,7.9,0.4h192
	C440.5,298.7,469.3,269.9,469.3,234.7z M385.9,384.9c-11.3-3.2-23,3.6-26.2,14.9l-6.2,22.6c-4.5,16.4-15.1,30.3-30.1,38.6
	c-14.9,8.5-32.2,10.7-48.6,6.2L89.6,416.4c-34.1-9.4-54.2-44.6-44.8-78.7l20.5-75.9c3-11.3-3.6-23-14.9-26.2
	c-11.3-3-23,3.6-26.2,14.9L3.8,326.2c-15.6,56.7,17.9,115.6,74.7,131.2l185.2,50.8c9.4,2.6,19,3.8,28.4,3.8
	c18.3,0,36.3-4.7,52.7-14.1c24.7-14.1,42.5-36.9,50.1-64.4l6.2-22.6c3.2-11.3-3.6-23-14.9-26.2L385.9,384.9z"/>
</svg>
