<?xml version="1.0" encoding="utf-8"?>
<!-- Generator: Adobe Illustrator 24.0.2, SVG Export Plug-In . SVG Version: 6.00 Build 0)  -->
<svg version="1.1" id="Layer_1" xmlns="http://www.w3.org/2000/svg" xmlns:xlink="http://www.w3.org/1999/xlink" x="0px" y="0px"
	 viewBox="0 0 512 512" style="enable-background:new 0 0 512 512;" xml:space="preserve">
<style type="text/css">
	.st0{fill:white;}
</style>
<path class="st0" d="M298.7,384h-85.3c-23.5,0-42.7-19.1-42.7-42.7V256c0-23.5,19.1-42.7,42.7-42.7h85.3c23.5,0,42.7,19.1,42.7,42.7
	v85.3C341.3,364.9,322.2,384,298.7,384z M213.3,256v85.3h85.4l0-85.3H213.3z M405.3,512H106.7C47.9,512,0,464.1,0,405.3V207.4
	c0-35.5,17.6-68.6,47-88.4L196.3,18.2c36.2-24.4,83.1-24.4,119.3,0L465,119c29.4,19.8,47,52.9,47,88.4v197.9
	C512,464.1,464.1,512,405.3,512z M256,42.6c-12.5,0-24.9,3.7-35.8,11L70.9,154.4c-17.7,11.9-28.2,31.7-28.2,53v197.9
	c0,35.3,28.7,64,64,64h298.7c35.3,0,64-28.7,64-64V207.4c0-21.3-10.5-41.2-28.2-53L291.8,53.6C280.9,46.3,268.5,42.6,256,42.6z"/>
</svg>