<?xml version="1.0" encoding="utf-8"?>
<!-- Generator: Adobe Illustrator 24.0.2, SVG Export Plug-In . SVG Version: 6.00 Build 0)  -->
<svg version="1.1" id="Layer_1" xmlns="http://www.w3.org/2000/svg" xmlns:xlink="http://www.w3.org/1999/xlink" x="0px" y="0px"
	 viewBox="0 0 512 512" style="enable-background:new 0 0 512 512;" xml:space="preserve">
<style type="text/css">
	.st0{fill:#FFFFFF;}
</style>
<path class="st0" d="M436.6,369.1c-0.4-0.6-33.2-38.7-33.2-38.7c24.8-18.2,30.6-52.8,13.1-78.1c-0.5-0.8-40.2-44.6-40.2-44.6
	c9.9-5,18-13,23.1-22.9c9-17.2,7.5-38.1-3.8-53.9C395.3,130.1,296.2,18,296.2,18C275-4.2,239.8-5,217.6,16.3
	c-0.6,0.6-1.2,1.2-1.8,1.8c0,0-99.1,112.1-99.5,112.7c-11.3,15.8-12.7,36.6-3.8,53.9c5.1,9.9,13.2,17.9,23.1,22.9
	c0,0-39.7,43.8-40.2,44.6c-17.4,25.3-11.6,59.9,13.1,78.1c0,0-32.8,38.1-33.2,38.8c-20,29.1-12.7,69,16.5,89
	c10.6,7.3,23.2,11.2,36.2,11.3h106.7v21.3c0,11.8,9.6,21.3,21.3,21.3c11.8,0,21.3-9.6,21.3-21.3v-21.3H384c35.3,0,64-28.7,64-64
	C448,392.4,444,379.7,436.6,369.1L436.6,369.1z M402.8,415.3c-3.6,7-10.9,11.4-18.8,11.4H128c-11.8,0-21.3-9.5-21.4-21.3
	c0-4,1.1-7.9,3.2-11.3l45.5-52.7h121.9c11.8,0,21.3-9.6,21.3-21.3c0-11.8-9.6-21.3-21.3-21.3h-135c-7.9,0-14.2-6.4-14.2-14.2
	c0-2.5,0.7-4.9,1.9-7.1l58.1-64h68c11.8,0,21.3-9.6,21.3-21.3c0-11.8-9.6-21.3-21.3-21.3h-96c-4,0.1-7.8-2.1-9.6-5.6
	c-1.5-2.8-1.5-6.2,0.2-8.9l97.1-109.8c3.9-4.6,10.7-5.1,15.3-1.2c0.4,0.4,0.8,0.8,1.2,1.2l97.1,109.8c1.7,2.7,1.8,6.1,0.2,8.9
	c-1.8,3.5-5.5,5.7-9.5,5.7h-18.5c-11.9,0.2-21.3,9.9-21.2,21.8c0.1,5.1,2,10.1,5.4,13.9l64.3,71c3.9,6.8,1.6,15.5-5.2,19.4
	c-2.2,1.2-4.6,1.9-7.1,1.9h-3.3c-11.9,0.2-21.3,9.9-21.2,21.8c0.1,4.9,1.8,9.7,5,13.5L402,394C406.1,400.5,406.4,408.6,402.8,415.3
	L402.8,415.3z"/>
</svg>
