<?xml version="1.0" encoding="utf-8"?>
<!-- Generator: Adobe Illustrator 24.0.2, SVG Export Plug-In . SVG Version: 6.00 Build 0)  -->
<svg version="1.1" id="Bold" xmlns="http://www.w3.org/2000/svg" xmlns:xlink="http://www.w3.org/1999/xlink" x="0px" y="0px"
	 viewBox="0 0 512 512" style="enable-background:new 0 0 512 512;" xml:space="preserve">
<style type="text/css">
	.st0{fill:#FFFFFF;}
</style>
<path class="st0" d="M480,384c-8.5,0-16.6-3.4-22.6-9.4L293.7,211c-20.8-20.8-54.6-20.8-75.4,0c0,0,0,0,0,0L54.8,374.4
	c-12.7,12.3-33,11.9-45.2-0.8c-12-12.4-12-32.1,0-44.5L173,165.7c45.8-45.8,120.1-45.8,165.9,0l163.7,163.7
	c12.5,12.5,12.5,32.8,0,45.3C496.6,380.6,488.5,384,480,384z"/>
</svg>
