<?xml version="1.0" encoding="utf-8"?>
<!-- Generator: Adobe Illustrator 24.0.2, SVG Export Plug-In . SVG Version: 6.00 Build 0)  -->
<svg version="1.1" id="Layer_1" xmlns="http://www.w3.org/2000/svg" xmlns:xlink="http://www.w3.org/1999/xlink" x="0px" y="0px"
	 viewBox="0 0 512 512" style="enable-background:new 0 0 512 512;" xml:space="preserve">
<style type="text/css">
	.st0{fill:#FFFFFF;}
</style>
<path class="st0" d="M469.3,192h-64V64c0-35.3-28.7-64-64-64H170.7c-35.3,0-64,28.7-64,64v128h-64v42.7H84C71,261,64,290.3,64,320
	c0,105.9,86.1,192,192,192s192-86.1,192-192c0-29.7-7-59-20-85.3h41.4V192z M149.3,64c0-11.8,9.6-21.3,21.3-21.3h170.7
	c11.8,0,21.3,9.6,21.3,21.3v128H149.3V64z M405.3,320c0,82.3-67,149.3-149.3,149.3s-149.3-67-149.3-149.3c0-31,9.2-60.3,26.8-85.3
	h245.1C396.1,259.7,405.3,289,405.3,320L405.3,320z M149.3,309.3c0-17.7,14.3-32,32-32s32,14.3,32,32s-14.3,32-32,32
	S149.3,327,149.3,309.3z M298.7,309.3c0-17.7,14.3-32,32-32c17.7,0,32,14.3,32,32s-14.3,32-32,32C313,341.3,298.7,327,298.7,309.3z
	 M256,448c0,0-32-57-32-74.7s14.3-32,32-32s32,14.3,32,32S256,448,256,448z"/>
</svg>
